<svg xmlns="http://www.w3.org/2000/svg" width="1792" height="1024" viewBox="0 0 1792 1024">
  <defs>
    <linearGradient id="soil" x1="0" y1="0" x2="1" y2="1">
      <stop offset="0%" stop-color="#0B3D5C" />
      <stop offset="35%" stop-color="#0C6DAA" />
      <stop offset="65%" stop-color="#2DBE8C" />
      <stop offset="100%" stop-color="#E7C76A" />
    </linearGradient>
    <linearGradient id="legend" x1="0" y1="0" x2="1" y2="0">
      <stop offset="0%" stop-color="#0B3D5C" />
      <stop offset="35%" stop-color="#0C6DAA" />
      <stop offset="65%" stop-color="#2DBE8C" />
      <stop offset="100%" stop-color="#E7C76A" />
    </linearGradient>
    <style>
      .title { font: 600 40px Arial, sans-serif; fill: #0D4B78; }
      .label { font: 600 22px Arial, sans-serif; fill: #0D4B78; }
      .small { font: 500 18px Arial, sans-serif; fill: #2B5C7A; }
      .frame { fill: #FFFFFF; stroke: #C7D9EB; stroke-width: 2; }
      .contour { stroke: rgba(255,255,255,0.45); stroke-width: 2; fill: none; }
      .contour-soft { stroke: rgba(0,0,0,0.15); stroke-width: 1; fill: none; }
      .dot { fill: #FFFFFF; stroke: #0D4B78; stroke-width: 2; }
    </style>
  </defs>
  <rect width="100%" height="100%" fill="#F8FBFF" />
  <text x="80" y="90" class="title">Soil Moisture Context (Concept)</text>

  <rect x="120" y="140" width="1200" height="760" rx="18" class="frame" />
  <rect x="150" y="170" width="1140" height="700" rx="14" fill="url(#soil)" />

  <path d="M170 260 C320 220, 520 260, 680 240 C860 220, 980 300, 1120 280" class="contour" />
  <path d="M220 360 C420 320, 560 360, 740 340 C920 320, 1080 420, 1180 400" class="contour" />
  <path d="M200 520 C360 480, 560 520, 760 500 C960 480, 1080 560, 1200 540" class="contour" />
  <path d="M240 660 C420 620, 640 660, 820 640 C1020 620, 1140 700, 1240 690" class="contour" />

  <path d="M300 240 C420 210, 600 240, 760 220" class="contour-soft" />
  <path d="M320 420 C520 390, 720 420, 900 400" class="contour-soft" />
  <path d="M360 580 C560 550, 760 580, 960 560" class="contour-soft" />

  <circle cx="520" cy="420" r="10" class="dot" />
  <circle cx="860" cy="540" r="10" class="dot" />
  <circle cx="1060" cy="360" r="10" class="dot" />

  <rect x="1360" y="180" width="320" height="220" rx="16" class="frame" />
  <text x="1390" y="230" class="label">Regional Inset</text>
  <rect x="1390" y="260" width="260" height="120" rx="10" fill="#E6F3FF" stroke="#0D4B78" stroke-width="2" />
  <circle cx="1520" cy="320" r="22" fill="#2DBE8C" stroke="#0D4B78" stroke-width="2" />

  <rect x="1360" y="440" width="320" height="180" rx="16" class="frame" />
  <text x="1390" y="490" class="label">Moisture Index</text>
  <rect x="1390" y="520" width="260" height="24" rx="12" fill="url(#legend)" />
  <text x="1390" y="570" class="small">Dry</text>
  <text x="1610" y="570" class="small">Wet</text>

  <rect x="1360" y="660" width="320" height="240" rx="16" class="frame" />
  <text x="1390" y="710" class="label">Use Notes</text>
  <text x="1390" y="750" class="small">Regional context</text>
  <text x="1390" y="780" class="small">Daily decision check</text>
  <text x="1390" y="810" class="small">Not field-scale</text>
</svg>
