<svg xmlns="http://www.w3.org/2000/svg" width="1792" height="1024" viewBox="0 0 1792 1024">
  <defs>
    <style>
      .title { font: 600 44px Arial, sans-serif; fill: #0D4B78; }
      .label { font: 600 26px Arial, sans-serif; fill: #0D4B78; }
      .box { fill: #E6F3FF; stroke: #1E88E5; stroke-width: 3; }
      .arrow { stroke: #0D4B78; stroke-width: 4; fill: none; }
    </style>
    <marker id="arrow" markerWidth="10" markerHeight="10" refX="9" refY="5" orient="auto" markerUnits="strokeWidth">
      <path d="M 0 0 L 10 5 L 0 10 z" fill="#0D4B78" />
    </marker>
  </defs>
  <rect width="100%" height="100%" fill="#F8FBFF" />
  <text x="96" y="120" class="title">Operator Workflow Loop</text>
  <rect x="220" y="360" rx="18" ry="18" width="280" height="140" class="box" />
  <rect x="560" y="360" rx="18" ry="18" width="280" height="140" class="box" />
  <rect x="900" y="360" rx="18" ry="18" width="280" height="140" class="box" />
  <rect x="1240" y="360" rx="18" ry="18" width="280" height="140" class="box" />
  <text x="300" y="440" class="label">Alert</text>
  <text x="620" y="440" class="label">Verify</text>
  <text x="970" y="440" class="label">Adjust</text>
  <text x="1320" y="440" class="label">Log</text>
  <line x1="500" y1="430" x2="560" y2="430" class="arrow" marker-end="url(#arrow)" />
  <line x1="840" y1="430" x2="900" y2="430" class="arrow" marker-end="url(#arrow)" />
  <line x1="1180" y1="430" x2="1240" y2="430" class="arrow" marker-end="url(#arrow)" />
  <line x1="1380" y1="520" x2="340" y2="520" class="arrow" marker-end="url(#arrow)" />
</svg>
